<?xml version="1.0" standalone="no"?>
<!DOCTYPE svg PUBLIC "-//W3C//DTD SVG 20010904//EN"
 "http://www.w3.org/TR/2001/REC-SVG-20010904/DTD/svg10.dtd">
<svg version="1.0" xmlns="http://www.w3.org/2000/svg"
 width="512.000000pt" height="512.000000pt" viewBox="0 0 512.000000 512.000000"
 preserveAspectRatio="xMidYMid meet">
<metadata>
Created by potrace 1.11, written by Peter Selinger 2001-2013
</metadata>
<g transform="translate(0.000000,512.000000) scale(0.100000,-0.100000)"
fill="#000000" stroke="none">
<path d="M2258 4670 c-36 -28 -58 -88 -49 -131 4 -19 4 -43 1 -54 -4 -11 -10
-30 -15 -42 -9 -27 -33 -30 -42 -5 -4 9 -23 32 -42 50 -31 29 -33 35 -23 58
18 39 15 49 -27 72 -47 27 -64 27 -118 2 -30 -13 -43 -25 -43 -40 0 -11 3 -20
8 -20 13 0 42 -61 42 -91 0 -21 -5 -29 -18 -29 -22 0 -127 53 -164 82 l-28 22
-27 -21 c-48 -35 -59 -64 -44 -111 8 -23 13 -53 13 -69 -6 -140 -10 -192 -16
-219 -5 -22 -2 -37 12 -55 11 -13 32 -49 47 -78 24 -47 26 -58 14 -75 -7 -12
-15 -56 -17 -99 -4 -71 -3 -80 18 -99 22 -20 22 -22 4 -35 -15 -11 -16 -18 -8
-41 6 -15 7 -37 3 -47 -20 -53 -8 -85 39 -100 19 -5 25 -1 37 27 13 32 56 64
69 51 3 -4 6 -21 6 -40 0 -26 4 -33 20 -33 16 0 20 -7 20 -33 0 -18 -4 -37 -8
-42 -4 -6 -18 -37 -31 -70 -12 -33 -30 -77 -38 -97 -15 -35 -14 -38 5 -62 30
-39 16 -75 -35 -90 -21 -7 -23 -4 -23 28 0 45 -17 89 -32 84 -6 -2 -21 -16
-32 -31 -20 -27 -20 -28 -1 -80 10 -28 27 -64 37 -78 27 -37 36 -107 14 -115
-9 -4 -16 -17 -16 -33 0 -15 -7 -36 -15 -47 -19 -26 -20 -108 0 -124 8 -7 15
-23 15 -36 0 -12 4 -25 9 -28 13 -9 51 -89 51 -109 0 -10 9 -25 20 -34 26 -22
25 -33 0 -33 -11 0 -23 -7 -27 -15 -3 -9 -17 -28 -32 -43 -14 -15 -47 -51 -73
-79 -32 -38 -53 -53 -71 -53 -40 0 -55 9 -50 31 3 10 -1 26 -8 35 -7 9 -19 30
-25 48 -7 17 -24 62 -38 100 -15 39 -33 77 -41 86 -8 9 -15 30 -15 46 0 16 -7
38 -15 48 -8 11 -15 29 -15 40 0 12 -8 34 -19 49 -26 40 -19 100 17 151 16 24
34 66 40 100 10 50 10 62 -5 87 -10 16 -23 29 -30 29 -15 0 -17 -48 -4 -69 13
-20 -6 -56 -38 -71 -14 -7 -66 -16 -115 -20 l-89 -8 -40 31 c-38 31 -39 33
-33 79 7 53 2 57 -43 33 -51 -26 -54 -63 -10 -129 43 -64 28 -79 -36 -34 -46
33 -47 34 -43 80 7 71 -5 80 -46 33 -53 -61 -50 -92 19 -165 51 -53 55 -59 40
-74 -22 -21 -53 -20 -93 4 -40 25 -42 25 -42 0 0 -51 57 -140 89 -140 9 0 38
15 66 34 42 28 66 36 143 47 60 8 96 9 102 3 18 -18 31 -119 25 -204 -7 -96 8
-166 39 -184 22 -13 65 -57 66 -68 0 -19 136 -169 157 -174 26 -7 155 21 193
41 14 7 43 16 64 20 36 7 39 6 31 -11 -4 -10 -11 -66 -14 -124 -4 -58 -10
-111 -15 -119 -5 -7 -12 -66 -17 -130 -10 -149 -27 -225 -62 -278 -15 -24 -27
-45 -27 -47 0 -2 -22 -38 -50 -79 -27 -41 -50 -80 -50 -87 0 -7 -8 -9 -20 -5
-18 6 -20 3 -14 -20 5 -21 3 -27 -15 -32 -28 -7 -27 -11 11 -45 39 -34 62 -35
119 -4 126 70 116 66 131 49 9 -11 13 -46 13 -108 -1 -87 -3 -94 -33 -135 -22
-30 -32 -56 -32 -79 0 -20 -7 -45 -15 -55 -8 -11 -15 -35 -15 -53 0 -19 -7
-50 -15 -70 -8 -19 -15 -58 -15 -85 0 -57 15 -68 64 -48 17 7 43 15 58 17 15
3 33 11 39 19 6 8 24 14 39 14 15 0 33 7 40 15 6 8 21 13 33 12 16 -1 26 9 43
43 12 25 25 60 29 79 8 44 34 83 51 77 8 -3 11 0 8 9 -3 8 10 31 31 52 35 36
37 37 51 19 8 -11 14 -29 14 -40 0 -24 36 -138 56 -178 8 -14 14 -36 14 -47 0
-12 9 -29 20 -38 11 -10 20 -30 20 -45 0 -15 8 -33 19 -40 31 -22 22 -102 -20
-163 -47 -70 -101 -122 -128 -127 -13 -1 -29 -11 -35 -21 -17 -28 8 -37 109
-38 50 -1 138 -3 197 -5 89 -2 111 0 128 14 19 16 20 22 10 71 -10 56 -58 143
-94 173 -19 16 -21 26 -19 174 2 143 4 160 22 178 19 19 21 19 39 3 10 -9 23
-17 29 -17 5 0 27 -26 49 -57 56 -81 78 -103 106 -103 13 0 28 -4 34 -10 5 -5
33 -14 63 -20 41 -8 58 -7 80 4 26 14 27 17 25 86 -2 39 -8 96 -14 126 -7 31
-9 68 -5 82 3 15 10 44 16 64 l10 37 36 -24 c20 -14 42 -25 49 -25 8 0 14 -3
14 -7 0 -24 299 -303 325 -303 14 0 27 -15 43 -50 12 -28 27 -50 32 -50 18 0
-1 -113 -31 -182 -16 -36 -29 -70 -29 -75 0 -4 -24 -19 -53 -33 -54 -26 -71
-54 -40 -64 10 -3 109 -8 220 -10 235 -6 232 -7 215 78 -14 70 -55 137 -128
211 -58 58 -60 63 -72 137 -11 66 -11 81 2 113 9 21 16 47 16 59 0 12 5 27 11
33 6 6 14 43 17 82 3 49 10 75 22 86 16 15 21 12 64 -29 25 -25 46 -49 46 -53
0 -4 16 -25 35 -47 19 -21 35 -42 35 -47 0 -5 8 -9 18 -9 10 0 27 -7 38 -15
10 -8 27 -15 37 -15 10 0 34 -12 54 -27 l35 -27 19 23 c11 14 17 32 13 45 -2
11 -6 32 -7 46 -1 14 -7 31 -15 39 -8 8 -12 32 -10 64 3 49 5 52 37 61 26 7
36 7 39 -2 2 -8 16 -10 43 -6 31 5 39 3 39 -9 0 -8 -6 -18 -12 -21 -7 -4 -2
-4 11 -2 16 3 43 -9 90 -42 36 -25 71 -52 76 -58 14 -19 61 -34 101 -34 l34 0
0 75 c0 72 -12 97 -28 58 -8 -22 -20 39 -22 107 0 25 -7 56 -15 70 -8 14 -14
52 -15 87 0 41 -5 67 -15 77 -8 8 -15 19 -15 25 0 9 -20 53 -76 164 -8 16 -14
40 -14 53 0 18 -5 24 -17 22 -12 -2 -19 4 -21 19 -2 12 -10 27 -18 33 -8 7
-14 20 -14 30 0 10 -6 23 -14 29 -8 6 -16 22 -19 34 -10 40 -33 97 -45 109 -7
7 -12 21 -12 33 0 23 -36 136 -56 178 -8 16 -14 39 -14 51 0 12 -7 31 -15 42
-8 10 -15 31 -15 45 0 14 -7 34 -15 45 -8 10 -15 29 -15 40 0 12 -6 27 -14 33
-8 7 -18 27 -22 44 -3 18 -10 37 -14 42 -4 6 -11 27 -14 49 -4 21 -11 46 -16
55 -5 9 -16 43 -25 76 -9 33 -23 80 -32 105 -8 25 -19 65 -24 90 -5 25 -23 85
-40 134 -25 70 -30 98 -25 134 3 25 2 50 -4 57 -5 6 -16 38 -25 70 -8 32 -19
63 -25 69 -5 5 -10 21 -10 33 0 52 -50 93 -140 113 -46 11 -128 39 -162 56
-14 8 -33 14 -42 14 -9 0 -26 10 -38 22 -16 16 -32 21 -55 19 -19 -1 -33 2
-33 8 0 6 -9 11 -20 11 -23 0 -100 39 -100 50 0 5 -8 16 -17 25 -9 10 -28 49
-41 89 -14 39 -36 85 -48 102 -13 17 -24 34 -24 39 0 4 -14 30 -30 57 l-31 49
21 29 c13 19 20 43 19 72 0 24 0 50 1 58 1 8 -1 24 -5 36 -5 15 3 30 29 58 20
20 36 39 36 42 0 2 9 17 19 32 17 23 19 37 12 100 -7 79 -16 92 -66 92 -30 0
-75 -23 -75 -39 0 -5 -11 -29 -26 -54 l-25 -46 -40 40 c-34 34 -39 45 -34 69
3 16 13 34 21 41 20 16 17 46 -7 86 -34 55 -99 70 -134 31 -11 -12 -31 -45
-45 -73 -20 -39 -32 -52 -58 -59 -35 -10 -77 -56 -84 -91 -5 -30 -22 -21 -30
17 -15 66 9 157 48 183 22 14 34 55 16 55 -4 0 -31 18 -61 40 -59 45 -87 49
-123 20z"/>
<path d="M2170 4500 c0 -5 4 -10 9 -10 6 0 13 5 16 10 3 6 -1 10 -9 10 -9 0
-16 -4 -16 -10z"/>
<path d="M3022 869 c2 -6 8 -10 13 -10 5 0 11 4 13 10 2 6 -4 11 -13 11 -9 0
-15 -5 -13 -11z"/>
<path d="M2585 680 c3 -5 8 -10 11 -10 2 0 4 5 4 10 0 6 -5 10 -11 10 -5 0 -7
-4 -4 -10z"/>
<path d="M3340 650 c0 -5 5 -10 10 -10 6 0 10 5 10 10 0 6 -4 10 -10 10 -5 0
-10 -4 -10 -10z"/>
</g>
</svg>
